<svg xmlns="http://www.w3.org/2000/svg" viewBox="0 0 661.82 145.81"><g id="Layer_2" data-name="Layer 2"><g id="Layer_1-2" data-name="Layer 1"><path d="M4.31,10.87Q0,7.6,0,4.4T4.14.34A24.17,24.17,0,0,1,8.37.17c2.59,0,5.75,0,9.49-.08S25.65,0,30,0H52.2A34.63,34.63,0,0,1,57,.17a15.43,15.43,0,0,1,2.93.35Q72.83,1.9,80.94,8.11A25.91,25.91,0,0,1,91,24.33,39.16,39.16,0,0,1,91.29,38a27.47,27.47,0,0,1-4.4,11.3,28.89,28.89,0,0,1-8.8,8.28,39.37,39.37,0,0,1-12.86,4.92,25.62,25.62,0,0,1-3.71.69c-1.09.12-2.27.23-3.53.35s-2.77.17-4.49.17H37.1V77.14q0,6.57.09,10.18a26.38,26.38,0,0,0,.6,5.61A6.69,6.69,0,0,0,39.43,96q1.13,1.13,3.2,2.85,4.48,3.45,3.36,6.73c-.75,2.18-3,3.28-6.82,3.28l-17.86.25q-6.81.09-10.61.09c-2.53,0-4.29,0-5.26-.09a6.78,6.78,0,0,1-1.82-.25q-3.8-1.38-3.53-4.58t4.22-5.95A12.94,12.94,0,0,0,8.8,93.19a44.72,44.72,0,0,0,.26-6q.09-5.61.17-13.9t.09-18V37.19q0-8.37-.09-14.07a46.28,46.28,0,0,0-.26-6A12.41,12.41,0,0,0,4.31,10.87ZM37.1,54h5a10.35,10.35,0,0,0,2.07-.18,19.36,19.36,0,0,0,9.49-3.28A20.78,20.78,0,0,0,60,43.75,26,26,0,0,0,63.08,35a23.18,23.18,0,0,0-.35-9.32,21.63,21.63,0,0,0-4.14-8.37,20.92,20.92,0,0,0-8-6,23,23,0,0,0-6.12-1.3,29.32,29.32,0,0,0-6.65-.08c-.11,0-.23.14-.34.43a11,11,0,0,0-.26,2.5q-.09,2.07-.09,6.56V54Z"/><path d="M174.13,3.11a13.3,13.3,0,0,1,7.25,4.22,14.69,14.69,0,0,1,3.45,7.08,14.45,14.45,0,0,1-.78,7.77,13.41,13.41,0,0,1-5.43,6.47,12.62,12.62,0,0,1-7.25,2.24,23.21,23.21,0,0,1-8.63-2.07,23.74,23.74,0,0,0-8.11-2.07,11.31,11.31,0,0,0-4.49,1q-9.49,4.49-14.76,18.2t-4.91,33.39c0,2.42.05,4.46.17,6.13a15.9,15.9,0,0,0,.86,4.4,13.8,13.8,0,0,0,1.81,3.45,42.23,42.23,0,0,0,3,3.63q5,5.52,1.9,9a3.75,3.75,0,0,1-1.12,1,6,6,0,0,1-2.16.51,41.76,41.76,0,0,1-4.48.18h-8.29q-5,.16-10.09.17h-7.51c-2.42.12-4.09.15-5,.09a9,9,0,0,1-1.9-.26q-4-.87-4-4.06c0-2.13,1.38-4.51,4.14-7.16A39.78,39.78,0,0,0,101,93a11.09,11.09,0,0,0,1.3-2.24,9.65,9.65,0,0,0,.17-2.51c0-1.44,0-3.19.08-5.26s.09-4.32.09-6.73v-6.9c0-2.19,0-4-.09-5.53s-.08-2.35-.08-2.59A11.65,11.65,0,0,0,101,57.64a28.41,28.41,0,0,0-3.46-4q-4-4-3.45-6.3c.35-1.55,2.3-3,5.87-4.23q7.08-2.41,11.74-3.88t7.5-2.33c1.9-.57,3.28-1,4.14-1.21a8.34,8.34,0,0,1,1.82-.34,5.63,5.63,0,0,1,4.66,3.28c.22.57.4.63.51.17A41.82,41.82,0,0,1,133.23,32a64.08,64.08,0,0,1,4.66-7.85,54.13,54.13,0,0,1,8.37-9.41,59.43,59.43,0,0,1,9.66-7.07,40.18,40.18,0,0,1,9.75-4.14A17.16,17.16,0,0,1,174.13,3.11ZM190,45.39a28.21,28.21,0,0,0-3.45,4,9,9,0,0,0-1.38,3.45c0,.23,0,1.32-.08,3.28s-.09,4.29-.09,7v8.71c0,3.11,0,6,.09,8.72s.11,5,.17,6.81.08,2.88.08,3.11a20.12,20.12,0,0,0,1.73,3.8A22.4,22.4,0,0,0,190.52,98a12.33,12.33,0,0,1,3,3.71,4.14,4.14,0,0,1-.26,3.37,3.81,3.81,0,0,1-.77,1.29,3.14,3.14,0,0,1-1.47.69,14.84,14.84,0,0,1-2.85.35c-1.21.06-3,.08-5.26.08q-9,0-14.93.09t-9.49.09c-2.36,0-4.06,0-5.09-.09s-1.67-.09-1.9-.09q-3.79-1.2-3.62-4.4T152,96.64c1.26-1,2.21-1.87,2.85-2.5a5.7,5.7,0,0,0,1.38-2.24,13.09,13.09,0,0,0,.51-3.37c.06-1.38.09-3.33.09-5.87q.16-7.93.17-12.42a45.12,45.12,0,0,0-.43-7.08A9.93,9.93,0,0,0,155.06,59a43.89,43.89,0,0,0-3-3.62,16,16,0,0,1-3.54-4.66,5.8,5.8,0,0,1-.26-3.8,5.53,5.53,0,0,1,.86-1.47,5.47,5.47,0,0,1,1.82-1.2,20.24,20.24,0,0,1,3.79-1.21q2.5-.6,6.65-1.64,3.27-.87,8.28-2.07t8.8-2.07l7.42-1.64a21.9,21.9,0,0,1,4.32-.61,3,3,0,0,1,2.15.61,5.76,5.76,0,0,1,1.13,1.81,3.66,3.66,0,0,1,.08,3.36A20.85,20.85,0,0,1,190,45.39Z"/><path d="M204.5,96.47A11.37,11.37,0,0,0,208,91.12a35.72,35.72,0,0,0,.26-5c.06-3,.09-6.24.09-9.75s0-6.76-.09-9.76a35.86,35.86,0,0,0-.26-5,11.1,11.1,0,0,0-1.64-2.85A18.74,18.74,0,0,0,203,55.57c-2.3-2-3.48-3.85-3.54-5.7s1.06-3.39,3.37-4.66c.22-.11,1.61-.63,4.14-1.55s5.37-1.92,8.54-3,6.13-2.13,8.89-3.1,4.43-1.53,5-1.64a4,4,0,0,1,2.16-.09,5.57,5.57,0,0,1,2.07.95,8.66,8.66,0,0,1,1.64,1.55,2.77,2.77,0,0,1,.69,1.73c0,.23,0,.32.09.26a8.44,8.44,0,0,1,.95-.61,19.25,19.25,0,0,1,6.55-2.93,34.19,34.19,0,0,1,8.63-1,35.55,35.55,0,0,1,16.83,4q7.5,4,11,13.29c.34,1,.6,1.93.77,2.68a22.45,22.45,0,0,1,.43,3.27c.12,1.45.18,3.43.18,6v10.7c0,4,0,7.13.08,9.32s.12,3.79.18,4.83a20.32,20.32,0,0,0,.17,2.07,2.92,2.92,0,0,0,.26.86A12.26,12.26,0,0,0,283.54,96a30.55,30.55,0,0,0,3.11,3.45c2,2,3.07,3.48,3.36,4.58a4.68,4.68,0,0,1-2.07,4.4,7.3,7.3,0,0,1-2.5.52q-1.9.16-6,.25t-11.74.09q-6,0-10.7.09l-5,.08a4.31,4.31,0,0,1-1.9-.34,4.82,4.82,0,0,1-3.1-4.75,11.26,11.26,0,0,1,2.93-7q1.38-1.72,2.07-2.67A7,7,0,0,0,253,92a28.24,28.24,0,0,0,.34-5V63.16a29.75,29.75,0,0,0-.17-3.45c-.12-.92-.23-2-.35-3.11-.57-3.68-1.61-6.47-3.1-8.36s-3.17-2.85-5-2.85q-2.42,0-4.74,2.59c-1.56,1.72-2.62,4.37-3.2,7.94-.11,1-.26,3.33-.43,6.9s-.26,7.36-.26,11.39,0,7.74.09,11.13.14,5.44.26,6.12a11,11,0,0,0,1.38,3.28,30.54,30.54,0,0,0,3.11,4.15,8.33,8.33,0,0,1,2.07,6,4.58,4.58,0,0,1-3.46,4,11.09,11.09,0,0,1-2.93.17c-1.84,0-4.06,0-6.64.08s-5.41.09-8.46.09h-8.63c-2.7,0-5,0-6.82-.09s-2.87-.08-3.1-.08a4.23,4.23,0,0,1-3.63-4.49,5.53,5.53,0,0,1,.87-3.62A27.88,27.88,0,0,1,204.5,96.47Z"/><path d="M321,64.2q0,7.24-.08,11.39t0,6.47a32.92,32.92,0,0,0,.25,3.45c.12.75.23,1.53.35,2.33q1.2,6.21,4.66,9.32a6.9,6.9,0,0,0,2.59,1.55,29.57,29.57,0,0,0,4.49.69c2.76.24,4.57,1.18,5.43,2.85s.43,3.43-1.29,5.26a4.55,4.55,0,0,1-1.64.78,18.31,18.31,0,0,1-2.85.69c-1,.17-2,.32-2.85.43s-1.41.06-1.64-.17h-1.64a5.08,5.08,0,0,1-1.12-.17q-22.78-1-30.54-18.47a24,24,0,0,1-2-7.16A64.35,64.35,0,0,1,293,73.17c.23-4.71.35-8.57.35-11.56a43.42,43.42,0,0,0-.52-7.42,13.65,13.65,0,0,0-1.55-4.66,8.91,8.91,0,0,0-2.93-2.93,19.41,19.41,0,0,1-3.8-3.41,4.26,4.26,0,0,1-1-3.14,8.05,8.05,0,0,1,1.81-3.75,58.3,58.3,0,0,1,4.75-5.24,98.38,98.38,0,0,1,7.68-7.16q4.39-3.7,8.63-7t7.68-5.43a16.08,16.08,0,0,1,4.66-2.33,9.44,9.44,0,0,1,1.46.08c.29.06.52.52.7,1.38a24.77,24.77,0,0,1,.25,4.23V35.72h17.95v4.75c0,1.47,0,2.55.09,3.23a1.36,1.36,0,0,1-.69,1.44,6.36,6.36,0,0,1-2.76.42H321.16Z"/><path d="M364.31,145.31q-10.37-2.25-15.54-9.15t-4.14-16.91q.87-7.08,5.09-11.13a13.7,13.7,0,0,1,9.75-4.06,14.87,14.87,0,0,1,4.75.78,14.05,14.05,0,0,1,4.57,2.67c2.53,2.08,3.77,4,3.71,5.87s-1.41,4.26-4.05,7.25c-2.42,2.65-3.86,4.8-4.32,6.47a7.41,7.41,0,0,0,1,5.61c1.26,2,2.64,2.93,4.14,2.93q4,0,9-6.38t10-18.29l.52-1.73h-1.72q-12.94,0-17.78-15.7l-5.87-19.33c-1.49-4.83-2.65-8.54-3.45-11.13s-1.41-4.55-1.81-5.87a22.38,22.38,0,0,0-.95-2.68c-.23-.45-.46-.92-.69-1.38a13,13,0,0,0-2.85-3.88,23.42,23.42,0,0,0-4.57-3,8.37,8.37,0,0,1-2.93-2.5,5.09,5.09,0,0,1-1-2.94,4.63,4.63,0,0,1,1-2.76,5,5,0,0,1,2.67-1.81,16,16,0,0,1,3.37-.17h25.54q4.23,0,7.08.08a15.77,15.77,0,0,1,3.19.26c3.1,1.16,3.45,4.2,1,9.15a32.68,32.68,0,0,0-1.55,3.54,10.73,10.73,0,0,0-.6,3,17.08,17.08,0,0,0,.17,3.36q.25,1.82.78,4.23L395,87q1.22-4.32,2.08-7.6L399,72.14q1-4,1.9-7.42c.58-2.3,1.06-4.29,1.47-6a20.55,20.55,0,0,0,.6-3,12.81,12.81,0,0,0-.17-5.52,16.76,16.76,0,0,0-2.42-5.52c-1.26-2-1.66-3.71-1.2-5.27a4.8,4.8,0,0,1,3.62-3.19l3.28-.09q2.93-.07,6.47-.08h6.56a23,23,0,0,1,3.71.17c2.87.46,4.23,1.73,4.05,3.8s-1.75,4.31-4.74,6.73a33.35,33.35,0,0,0-3.8,3.71,18.4,18.4,0,0,0-2.59,3.71c-.34.81-.69,1.61-1,2.41A36.88,36.88,0,0,0,413.32,61c-.58,2.13-1.44,5.17-2.59,9.14S408,79.73,406.07,87l-4.83,17.43q-1.73,6.21-2.85,9.75a51.86,51.86,0,0,1-2.07,5.61c-.64,1.38-1.41,3-2.33,5q-5.87,11.91-13.38,17.17A20,20,0,0,1,364.31,145.31Z"/><path d="M494.6,36.41A19.4,19.4,0,0,1,504.78,42a21.85,21.85,0,0,1,5.35,9.41,19.25,19.25,0,0,1-.08,10.35,15,15,0,0,1-6.3,8.46A26,26,0,0,1,497,73.6a21.25,21.25,0,0,1-6.56,1.13,13.26,13.26,0,0,1-5.18-1,8.37,8.37,0,0,1-3.62-2.85,8,8,0,0,1-.78-1.64,4.87,4.87,0,0,1-.17-1.9,14,14,0,0,1,.6-2.85c.35-1.15.86-2.58,1.56-4.31q2.24-5.86,2.24-9a5.17,5.17,0,0,0-1.9-4.48,4.23,4.23,0,0,0-1.9-.52q-3.45,0-7.33,5.7a45.51,45.51,0,0,0-6.13,14.32c-.34,1.5-.63,2.79-.86,3.88s-.41,2.13-.52,3.11-.2,2.07-.26,3.28-.09,2.67-.09,4.4q0,3.8.09,6.21a15.33,15.33,0,0,0,.69,4.23,12.17,12.17,0,0,0,1.73,3.36,38.88,38.88,0,0,0,2.84,3.46q5.19,5.68,2.08,9.14a5.17,5.17,0,0,1-1.13.87,6,6,0,0,1-2.15.51c-1,.12-2.53.2-4.49.26s-4.78.09-8.46.09c-3.22,0-6.53,0-9.92.08s-5.9.09-7.51.09h-5a7.23,7.23,0,0,1-1.9-.17q-4.14-.87-4.06-4.06t4.23-7.33a31.1,31.1,0,0,0,3.2-3.28,11.54,11.54,0,0,0,1.29-2.24,32.29,32.29,0,0,0,.26-4.84q.09-4.48.09-9.83V67.65a32.73,32.73,0,0,0-.18-5,16.67,16.67,0,0,0-1.64-3.8,23.25,23.25,0,0,0-3.36-4q-4-4-3.54-6.3t6-4.06c4.72-1.6,8.63-2.93,11.74-4s5.61-1.84,7.51-2.42,3.27-1,4.14-1.12a10.07,10.07,0,0,1,1.81-.26,4.75,4.75,0,0,1,3.19,1.38,8.37,8.37,0,0,1,1.73,2.93A12.83,12.83,0,0,1,466,44.7c.06,1.26.08,2.41.08,3.45,0,.23.29-.11.87-1a24.1,24.1,0,0,1,9.4-8.45,26.87,26.87,0,0,1,12.34-2.94A23.29,23.29,0,0,1,494.6,36.41Z"/><path d="M548.27,109.24a35.55,35.55,0,0,1-18.72-7.07,36.93,36.93,0,0,1-14.67-33,37.12,37.12,0,0,1,20.45-29.6A36.34,36.34,0,0,1,551.2,35.9a37.82,37.82,0,0,1,17.52,4.31,34.83,34.83,0,0,1,13.72,12.94,17.34,17.34,0,0,1,2.76,8,11.36,11.36,0,0,1-2.76,7.51,37.15,37.15,0,0,1-9.15,7.85,168.82,168.82,0,0,1-16.22,9.06,18.43,18.43,0,0,0-3.54,2c-.06.17.55.61,1.82,1.3a17.12,17.12,0,0,0,7.76,1.72,20.7,20.7,0,0,0,9.23-2.24,26.88,26.88,0,0,0,8.37-6.56q1.9-2.42,3.63-2.42c.92,0,1.52.67,1.81,2a9.18,9.18,0,0,1-.95,5.26,35.67,35.67,0,0,1-6.12,10,36.31,36.31,0,0,1-19.25,11.74A35.36,35.36,0,0,1,548.27,109.24Zm3.28-63q-2.76,0-5,3.37A23.63,23.63,0,0,0,543.27,58a36.2,36.2,0,0,0-.52,10.7,26.19,26.19,0,0,0,2.93,10.18,20.5,20.5,0,0,0,1.47,2.5c.17.17.54,0,1.12-.43a27.35,27.35,0,0,0,4.57-4.66,31.09,31.09,0,0,0,3.63-5.87,39,39,0,0,0,2.33-6.3,19.39,19.39,0,0,0,.69-6.12,15,15,0,0,0-.52-3.63,17.88,17.88,0,0,0-1.47-3.88,9.64,9.64,0,0,0-2.41-3A5.43,5.43,0,0,0,551.55,46.25Z"/><path d="M623,36.24q4.83,2.41,1.21,8.46a17.23,17.23,0,0,0-2.16,4.92,9.58,9.58,0,0,0,.08,4.22c.12.69.41,2,.87,3.8s1,3.94,1.64,6.3l2,7.42q1,3.89,1.9,7.16T630,83.87a12.44,12.44,0,0,0,.6,1.9c0-.11.17-.86.52-2.24s.77-3.11,1.29-5.18S633.46,74,634,71.62s1.09-4.72,1.55-6.9.9-4.06,1.3-5.61a18,18,0,0,0,.6-2.85,14.11,14.11,0,0,0-1.38-10.7c-.8-1.61-1.29-2.62-1.46-3a8.14,8.14,0,0,1-.44-1.29,4,4,0,0,1,.44-2.94,4.94,4.94,0,0,1,2.15-2.07,19.54,19.54,0,0,1,3.63-.26q3.27-.07,7.16-.08c2.59,0,5,.06,7.16.17a25.79,25.79,0,0,1,3.8.34c2.53.93,3.59,2.33,3.19,4.23s-2.16,4.17-5.26,6.82c-1.62,1.38-2.88,2.5-3.8,3.36a11.91,11.91,0,0,0-2.42,3.37,38.36,38.36,0,0,0-2.15,5.69q-1.12,3.63-3,10.19-2.43,8.79-3.71,13.72a60,60,0,0,0-1.64,7.76,8.8,8.8,0,0,0,.26,4.32,21.6,21.6,0,0,0,1.81,3.36c1.72,2.42,2.36,4.57,1.9,6.47s-1.9,3-4.32,3.2H634q-5,0-11.56-.18H610.31c-2.82,0-4.89,0-6.21-.08a23.12,23.12,0,0,1-2.42-.18,8,8,0,0,1-.95-.25q-5.68-2.94-.51-9.32a12,12,0,0,0,3.1-10q-.17-.52-1.46-5.09t-2.94-10.1q-1.63-5.52-3.1-10.53t-2-6.56a31.65,31.65,0,0,0-1.38-3.27,12.54,12.54,0,0,0-1.72-2.59,14.89,14.89,0,0,0-2.59-2.33q-1.56-1.12-4-2.68c-2.65-1.61-4.14-3.33-4.49-5.17s.57-3.22,2.76-4.15a17.18,17.18,0,0,1,3.37-.26l7.42-.17q4.39-.07,9.49-.08h9.49c2.93,0,5.41,0,7.42.08A17.29,17.29,0,0,1,623,36.24Z"/></g></g></svg>