<svg width="514" height="512" viewBox="0 0 514 512" fill="none" xmlns="http://www.w3.org/2000/svg">
<g clip-path="url(#clip0_1305_14)">
<path d="M197.463 14.8407C181.385 7.83263 162.834 14.4284 154.59 29.6813C148.406 41.6362 135.627 48.232 122.023 47.4075C104.709 45.7586 89.0438 58.1257 86.1581 75.4397C84.0969 88.6313 74.2032 99.3495 61.0116 102.647C44.1098 106.77 32.9794 123.672 35.8651 140.986C37.9263 154.177 32.1549 167.369 21.0245 174.789C6.1839 184.271 1.64928 203.646 9.89405 218.899C16.0776 230.854 15.2531 244.87 7.00838 255.588C-3.70982 269.604 -2.06086 288.979 10.7185 300.934C20.6122 310.003 23.9102 324.019 19.7878 336.799C14.0164 353.288 22.2612 371.427 37.9263 378.435C50.2934 383.794 58.1259 395.749 58.1259 409.353C58.1259 426.667 71.7298 441.507 89.0438 442.744C102.235 443.981 113.778 452.638 118.313 465.417C124.084 481.907 141.398 491.388 158.3 487.266C171.079 483.968 185.095 488.503 193.34 499.221C204.058 513.237 223.846 516.122 238.274 506.641C249.405 499.221 263.833 499.221 274.963 506.641C289.804 516.122 309.179 512.825 319.897 499.221C328.142 488.503 341.746 483.968 354.938 487.266C371.839 491.388 389.566 482.319 394.925 465.417C399.459 452.638 410.59 443.981 424.194 442.744C441.508 441.095 455.111 426.667 455.111 409.353C455.111 396.161 462.944 383.794 475.311 378.435C491.388 371.427 499.221 353.288 493.45 336.799C488.915 324.019 492.625 310.003 502.519 300.934C515.298 288.979 516.947 269.192 506.229 255.588C497.984 244.87 496.748 230.441 503.343 218.899C511.588 203.646 506.641 184.271 492.213 174.789C481.083 167.369 475.311 154.177 477.372 140.986C480.258 123.672 469.54 107.182 452.226 102.647C439.446 99.3495 429.553 88.6313 427.079 75.4397C424.194 58.1257 408.529 46.1708 391.215 47.4075C378.023 48.6442 365.244 41.6362 358.648 29.6813C350.403 14.4284 331.44 7.83263 315.363 14.8407C302.996 20.1998 288.979 17.7263 279.086 8.6571C266.306 -3.29781 246.519 -3.29781 233.327 8.6571C224.258 18.1386 209.83 20.1998 197.463 14.8407Z" fill="black"/>
<path d="M172.522 149.522C165.507 144.213 162 138.96 162 133.765C162 128.569 165.369 125.273 172.107 123.877C175.53 123.438 178.986 123.299 182.434 123.463C188.756 123.463 196.471 123.463 205.601 123.268C214.732 123.073 224.619 123.049 235.238 123.049H289.435C293.346 122.916 297.261 123.054 301.153 123.463C303.559 123.518 305.955 123.804 308.306 124.315C329.301 126.556 346.398 132.717 359.597 142.8C372.524 152.371 381.307 166.498 384.157 182.303C386.348 193.274 386.588 204.543 384.865 215.596C383.384 225.453 379.714 234.856 374.123 243.116C368.467 251.274 361.146 258.146 352.64 263.282C342.962 269.085 332.334 273.141 321.245 275.264C318.271 276.046 315.244 276.608 312.188 276.945C309.527 277.237 306.646 277.505 303.57 277.797C300.494 278.09 296.808 278.211 292.609 278.211H252.572V310.919C252.572 321.587 252.645 329.851 252.791 335.712C252.789 340.306 253.28 344.886 254.256 349.375C254.906 352.176 256.287 354.756 258.26 356.852C260.099 358.687 262.703 361 266.072 363.793C273.363 369.395 276.097 374.858 274.275 380.184C272.444 385.493 266.951 388.172 257.625 388.172L214.024 388.781C202.94 388.927 194.306 389 188.122 389C181.945 389 177.649 389 175.281 388.781C173.779 388.78 172.284 388.575 170.837 388.172C164.653 385.931 161.78 382.213 162.22 377.018C162.659 371.822 166.093 366.992 172.522 362.527C177.233 359.408 181.018 355.085 183.483 350.008C184.023 345.157 184.235 340.275 184.118 335.396C184.264 326.287 184.403 315.003 184.533 301.543C184.663 288.083 184.736 273.47 184.753 257.705V213.623C184.753 200.033 184.68 188.611 184.533 179.356C184.639 174.477 184.427 169.596 183.898 164.744C181.844 158.582 177.855 153.245 172.522 149.522ZM252.572 254.563H264.778C266.473 254.586 268.166 254.44 269.831 254.125C278.124 253.541 286.115 250.785 292.999 246.136C299.343 241.86 304.635 236.207 308.477 229.6C312.244 223.003 314.79 215.785 315.996 208.29C317.256 200.744 316.965 193.021 315.142 185.591C313.301 178.143 309.851 171.186 305.035 165.206C299.805 158.832 293.103 153.818 285.504 150.594C280.692 148.864 275.665 147.799 270.564 147.428C265.177 146.749 259.731 146.683 254.329 147.233C254.061 147.233 253.768 147.574 253.499 148.28C253.055 150.279 252.842 152.322 252.865 154.369C252.718 157.73 252.645 163.055 252.645 170.345V254.563H252.572Z" fill="white"/>
</g>
<defs>
<clipPath id="clip0_1305_14">
<rect width="513.237" height="512" fill="white"/>
</clipPath>
</defs>
</svg>
